# xmcd
#
# Track frame offsets:
#	150
#	26063
#	63489
#	68440
#	94991
#	125292
#	158968
#	171756
#	201907
#	271958
#
# Disc length: 4214 seconds
#
# Revision: 0
# Processed by: cddbd v1.5.2PL0 Copyright (c) Steve Scherf et al.
# Submitted via: EasyCDDAExtractor 10.0.2.1
#
DISCID=8910740a
DTITLE=Shin Takai - 3rd Manual Gemmation
DYEAR=2008
DGENRE=Electronic
TTITLE0=Dr. moter-ship
TTITLE1=s.f
TTITLE2=sound track from a film "pilgrimage"
TTITLE3=Sera1
TTITLE4=scioptic
TTITLE5=e.q - 3
TTITLE6=( i )
TTITLE7=ppp
TTITLE8=sound track for Milan collection
TTITLE9=l
EXTD=
EXTT0=
EXTT1=
EXTT2=
EXTT3=
EXTT4=
EXTT5=
EXTT6=
EXTT7=
EXTT8=
EXTT9=
PLAYORDER=
